<?xml version="1.0" encoding="utf-8"?>
<!-- Generator: Adobe Illustrator 19.0.0, SVG Export Plug-In . SVG Version: 6.00 Build 0)  -->
<svg version="1.1" id="Layer_1" xmlns="http://www.w3.org/2000/svg" xmlns:xlink="http://www.w3.org/1999/xlink" x="0px" y="0px"
	 viewBox="-376 371.8 110.6 179.2" style="enable-background:new -376 371.8 110.6 179.2;" xml:space="preserve">
<style type="text/css">
	.st0{fill:#010101;}
	.st1{fill:#04A195;}
</style>
<g>
	<g>
		
			<rect x="-397.1" y="346.2" transform="matrix(-0.9335 0.3587 -0.3587 -0.9335 -477.0296 934.854)" class="st0" width="143.8" height="154"/>
	</g>
	<g>
		<g>
			<path class="st1" d="M-412.3,382l50.1,130.4l18-6.9l-17.7-46.1c-2.5-0.2-4.9-1.8-5.9-4.5c-1-2.6-0.4-5.5,1.4-7.3l-15.6-40.6
				c-2.5-0.2-4.9-1.8-5.9-4.5c-1.4-3.5,0.2-7.4,3.5-8.7c2.5-0.9,5.2-0.2,7,1.8l70.4-27.1c0-2.6,1.5-5,4-6c3.3-1.3,7.1,0.6,8.4,4.1
				c1,2.6,0.4,5.5-1.4,7.3l15.6,40.6c2.5,0.2,4.9,1.8,5.9,4.5c1,2.6,0.4,5.5-1.4,7.3l8.7,22.8l-57.9,22.2c0,2.6-1.5,5-4,6
				c-3.3,1.3-7.1-0.6-8.4-4.1c-1-2.6-0.4-5.5,1.4-7.3l-15.6-40.6c-2.5-0.2-4.9-1.8-5.9-4.5c-1.4-3.5,0.2-7.4,3.5-8.7
				c2.5-0.9,5.2-0.2,7,1.8l29.7-11.4c0-2.6,1.5-5,4-6c3.3-1.3,7.1,0.6,8.4,4.1c1,2.6,0.4,5.5-1.4,7.3l5.5,14.4
				c2.5,0.2,4.9,1.8,5.9,4.5c1.4,3.5-0.2,7.4-3.5,8.7c-2.5,0.9-5.2,0.2-7-1.8l-17.2,6.6l-1.9-5l17.2-6.6c0-1.7,0.7-3.4,1.9-4.6
				l-5.5-14.4c-1.7-0.1-3.3-0.9-4.4-2.2l-29.8,11.4c0,1.7-0.7,3.4-1.9,4.6l15.6,40.6c1.7,0.1,3.3,0.9,4.4,2.2l53.2-20.5l-6.8-17.8
				c-2.5-0.2-4.9-1.8-5.9-4.5c-1-2.6-0.4-5.5,1.4-7.3l-15.6-40.6c-1.7-0.1-3.3-0.9-4.4-2.2l-70.4,27.1c0,1.7-0.7,3.4-1.9,4.6
				l15.6,40.6c2.5,0.2,4.9,1.8,5.9,4.5s0.4,5.5-1.4,7.3l17.7,46.1l99.1-38.1l-50.1-130.4L-412.3,382z"/>
		</g>
	</g>
</g>
<g>
	<path d="M-264.3,461.4c-9.9,15.9-26.2,36.2-48.6,36.2c-19.8,0-25.4-14.9-25.4-29.2v-88.3c0-12.3-4.7-16.3-14.2-16.3
		c-3.9,0-9.9,0-18,1.3v-6c22.3-5.3,44.3-11.3,66.6-17.6l1.7,1.3V468c0,3.3,2.1,7.6,8.6,7.6c9.5,0,12.9-3.3,22.8-16.9L-264.3,461.4z"
		/>
</g>
</svg>
