<?xml version="1.0" encoding="utf-8"?>
<!-- Generator: Adobe Illustrator 19.0.0, SVG Export Plug-In . SVG Version: 6.00 Build 0)  -->
<svg version="1.1" id="Layer_1" xmlns="http://www.w3.org/2000/svg" xmlns:xlink="http://www.w3.org/1999/xlink" x="0px" y="0px"
	 viewBox="-376 371.8 110.6 159" style="enable-background:new -376 371.8 110.6 159;" xml:space="preserve">
<style type="text/css">
	.st0{clip-path:url(#SVGID_2_);}
	.st1{fill:#010101;}
	.st2{fill:#04A195;}
</style>
<g>
	<defs>
		<path id="SVGID_1_" d="M-271.7,489.6c-9.2,14.9-24.5,33.8-45.3,33.8c-18.5,0-23.7-13.9-23.7-27.3v-82.4c0-11.5-4.4-15.2-13.2-15.2
			c-3.6,0-9.2,0-16.8,1.2v-5.6c20.9-5,41.3-10.5,62.2-16.4l1.6,1.2v116.8c0,3.1,2,7.1,8,7.1c8.8,0,12-3.1,21.3-15.8L-271.7,489.6z"
			/>
	</defs>
	<clipPath id="SVGID_2_">
		<use xlink:href="#SVGID_1_"  style="overflow:visible;"/>
	</clipPath>
	<g class="st0">
		<g>
			
				<rect x="-375.9" y="371" transform="matrix(-0.7985 0.602 -0.602 -0.7985 -307.0214 997.5392)" class="st1" width="110.9" height="152.7"/>
		</g>
		<g>
			<g>
				<path class="st2" d="M-403,423.1l83.4,110.6l11.9-9l-29.5-39.1c-2,0.2-4.5-0.9-6.1-3.2c-1.7-2.2-2.1-4.9-1.4-6.8l-25.9-34.4
					c-2,0.2-4.5-0.9-6.1-3.2c-2.3-3-2.3-6.7-0.1-8.4c1.6-1.2,4-0.9,6.1,0.6l46.5-35c-0.9-2.4-0.5-4.8,1.1-6c2.2-1.6,5.8-0.5,8,2.4
					c1.7,2.2,2.1,4.9,1.4,6.8l25.9,34.4c2-0.2,4.5,0.9,6.1,3.2c1.7,2.2,2.1,4.9,1.4,6.8l14.6,19.3l-38.2,28.8c0.9,2.4,0.5,4.8-1.1,6
					c-2.2,1.6-5.8,0.5-8-2.4c-1.7-2.2-2.1-4.9-1.4-6.8l-25.9-34.4c-2,0.2-4.5-0.9-6.1-3.2c-2.3-3-2.3-6.7-0.1-8.4
					c1.6-1.2,4-0.9,6.1,0.6l19.6-14.8c-0.9-2.4-0.5-4.8,1.1-6c2.2-1.6,5.8-0.5,8,2.4c1.7,2.2,2.1,4.9,1.4,6.8l9.2,12.2
					c2-0.2,4.5,0.9,6.1,3.2c2.3,3,2.3,6.7,0.1,8.4c-1.6,1.2-4,0.9-6.1-0.6l-11.4,8.6l-3.2-4.2l11.4-8.6c-0.6-1.6-0.6-3.2-0.1-4.4
					l-9.2-12.2c-1.3,0.2-2.9-0.3-4.2-1.3l-19.6,14.8c0.6,1.6,0.6,3.2,0.1,4.4l25.9,34.4c1.3-0.2,2.9,0.3,4.2,1.3l35.1-26.5
					l-11.4-15.1c-2,0.2-4.5-0.9-6.1-3.2c-1.7-2.2-2.1-4.9-1.4-6.8l-25.9-34.4c-1.3,0.2-2.9-0.3-4.2-1.3l-46.5,35
					c0.6,1.6,0.6,3.2,0.1,4.4l25.9,34.4c2-0.2,4.5,0.9,6.1,3.2c1.7,2.2,2.1,4.9,1.4,6.8l29.5,39.1l65.4-49.3l-83.4-110.6L-403,423.1
					z"/>
			</g>
		</g>
	</g>
</g>
</svg>
